<svg width="74" height="27" viewBox="0 0 74 27" fill="none" xmlns="http://www.w3.org/2000/svg">
<circle cx="12" cy="14" r="12" fill="#EA0000"/>
<circle cx="11.9998" cy="14" r="11.2" fill="white"/>
<circle cx="12.0001" cy="14" r="10.4" fill="#EA0000"/>
<path d="M7.2002 16.3779L17.0504 12.5865L17.0504 20.1692L7.2002 16.3779Z" fill="white"/>
<path d="M16.7998 11L6.8998 14.6373L6.89981 7.3627L16.7998 11Z" fill="white"/>
<path d="M27.952 13L29.728 3.184H32.692L34.456 13H32.428L32.128 11.032H30.28L29.992 13H27.952ZM30.604 8.884H31.804L31.204 4.924L30.604 8.884ZM37.8662 13V12.364C37.6742 12.596 37.4422 12.784 37.1702 12.928C36.8982 13.064 36.6222 13.132 36.3422 13.132C36.1662 13.132 35.9942 13.104 35.8262 13.048C35.6662 13 35.5182 12.932 35.3822 12.844C35.2462 12.756 35.1262 12.652 35.0222 12.532C34.9262 12.404 34.8542 12.268 34.8062 12.124C34.7742 12.012 34.7462 11.852 34.7222 11.644C34.7062 11.428 34.6982 11.2 34.6982 10.96V5.824H36.4622V9.424C36.4622 9.664 36.5182 9.856 36.6302 10C36.7422 10.136 36.8942 10.204 37.0862 10.204C37.1822 10.204 37.2782 10.184 37.3742 10.144C37.4782 10.104 37.5662 10.052 37.6382 9.988C37.7182 9.924 37.7822 9.848 37.8302 9.76C37.8782 9.672 37.9022 9.58 37.9022 9.484V5.824H39.6662C39.6582 6.088 39.6502 6.368 39.6422 6.664C39.6342 6.952 39.6262 7.244 39.6182 7.54C39.6102 7.828 39.6022 8.116 39.5942 8.404C39.5942 8.692 39.5942 8.964 39.5942 9.22C39.5942 9.372 39.5942 9.6 39.5942 9.904C39.5942 10.208 39.5942 10.54 39.5942 10.9C39.6022 11.26 39.6062 11.628 39.6062 12.004C39.6062 12.38 39.6062 12.712 39.6062 13H37.8662ZM40.818 4.432H42.462V5.824H43.386V9.016H42.438V10.696C42.438 11.024 42.466 11.244 42.522 11.356C42.578 11.46 42.706 11.512 42.906 11.512C42.962 11.512 43.038 11.508 43.134 11.5C43.23 11.492 43.302 11.48 43.35 11.464C43.366 11.52 43.374 11.636 43.374 11.812C43.374 11.98 43.374 12.152 43.374 12.328C43.374 12.48 43.374 12.62 43.374 12.748C43.374 12.868 43.37 12.952 43.362 13C43.266 13.016 43.158 13.028 43.038 13.036C42.926 13.052 42.814 13.064 42.702 13.072C42.598 13.08 42.498 13.084 42.402 13.084C42.314 13.092 42.242 13.096 42.186 13.096C41.898 13.096 41.662 13.04 41.478 12.928C41.294 12.816 41.15 12.668 41.046 12.484C40.942 12.292 40.87 12.08 40.83 11.848C40.79 11.608 40.77 11.364 40.77 11.116C40.77 11.02 40.77 10.88 40.77 10.696C40.778 10.504 40.782 10.304 40.782 10.096C40.79 9.888 40.798 9.688 40.806 9.496C40.814 9.296 40.818 9.136 40.818 9.016H40.098V5.824H40.818V4.432ZM46.4308 5.692C47.4068 5.692 48.1028 6.012 48.5188 6.652C48.9428 7.292 49.1548 8.212 49.1548 9.412C49.1548 10.62 48.9428 11.544 48.5188 12.184C48.1028 12.816 47.4068 13.132 46.4308 13.132C45.4468 13.132 44.7428 12.816 44.3188 12.184C43.9028 11.544 43.6948 10.62 43.6948 9.412C43.6948 8.212 43.9028 7.292 44.3188 6.652C44.7428 6.012 45.4468 5.692 46.4308 5.692ZM46.4308 10.312C46.5908 10.312 46.7308 10.28 46.8508 10.216C46.9788 10.152 47.0828 10.068 47.1628 9.964C47.2428 9.86 47.3028 9.744 47.3428 9.616C47.3828 9.48 47.4028 9.34 47.4028 9.196C47.4028 9.052 47.3828 8.912 47.3428 8.776C47.3028 8.64 47.2428 8.52 47.1628 8.416C47.0828 8.312 46.9788 8.228 46.8508 8.164C46.7308 8.1 46.5908 8.068 46.4308 8.068C46.1028 8.068 45.8548 8.184 45.6868 8.416C45.5268 8.648 45.4468 8.908 45.4468 9.196C45.4468 9.34 45.4668 9.48 45.5068 9.616C45.5468 9.744 45.6068 9.86 45.6868 9.964C45.7748 10.068 45.8788 10.152 45.9988 10.216C46.1188 10.28 46.2628 10.312 46.4308 10.312ZM53.757 12.16C53.453 12.4 53.173 12.572 52.917 12.676C52.669 12.78 52.397 12.832 52.101 12.832C51.701 12.832 51.337 12.752 51.009 12.592C50.681 12.424 50.397 12.196 50.157 11.908C49.925 11.612 49.741 11.26 49.605 10.852C49.477 10.444 49.413 9.996 49.413 9.508C49.413 8.98 49.485 8.488 49.629 8.032C49.781 7.568 49.985 7.164 50.241 6.82C50.505 6.468 50.809 6.192 51.153 5.992C51.497 5.792 51.865 5.692 52.257 5.692C52.841 5.692 53.341 5.936 53.757 6.424V5.824H55.461V9.688C55.461 10.4 55.449 11.004 55.425 11.5C55.409 11.996 55.381 12.388 55.341 12.676C55.221 13.524 54.897 14.172 54.369 14.62C53.849 15.076 53.161 15.304 52.305 15.304C51.945 15.304 51.601 15.264 51.273 15.184C50.953 15.104 50.657 14.988 50.385 14.836V13.36C50.969 13.656 51.553 13.804 52.137 13.804C52.665 13.804 53.065 13.692 53.337 13.468C53.617 13.244 53.757 12.924 53.757 12.508V12.16ZM51.705 8.668C51.705 8.996 51.793 9.26 51.969 9.46C52.145 9.66 52.377 9.76 52.665 9.76C52.817 9.76 52.957 9.732 53.085 9.676C53.221 9.612 53.337 9.528 53.433 9.424C53.537 9.32 53.617 9.2 53.673 9.064C53.729 8.92 53.757 8.768 53.757 8.608C53.757 8.456 53.729 8.312 53.673 8.176C53.625 8.04 53.553 7.924 53.457 7.828C53.361 7.724 53.249 7.644 53.121 7.588C52.993 7.532 52.857 7.504 52.713 7.504C52.425 7.504 52.185 7.612 51.993 7.828C51.801 8.044 51.705 8.324 51.705 8.668ZM61.858 13H60.214V12.412C59.926 12.644 59.622 12.824 59.302 12.952C58.982 13.072 58.67 13.132 58.366 13.132C58.006 13.132 57.674 13.044 57.37 12.868C57.066 12.692 56.802 12.448 56.578 12.136C56.362 11.816 56.19 11.436 56.062 10.996C55.934 10.556 55.87 10.076 55.87 9.556C55.87 9.012 55.938 8.504 56.074 8.032C56.21 7.56 56.394 7.152 56.626 6.808C56.866 6.456 57.146 6.184 57.466 5.992C57.794 5.792 58.146 5.692 58.522 5.692C58.85 5.692 59.162 5.764 59.458 5.908C59.754 6.044 60.006 6.216 60.214 6.424V5.824H61.918L61.858 13ZM58.162 8.668C58.162 8.996 58.25 9.26 58.426 9.46C58.61 9.66 58.842 9.76 59.122 9.76C59.426 9.76 59.682 9.652 59.89 9.436C60.106 9.22 60.214 8.944 60.214 8.608C60.214 8.456 60.186 8.312 60.13 8.176C60.082 8.04 60.01 7.924 59.914 7.828C59.818 7.724 59.706 7.644 59.578 7.588C59.45 7.532 59.314 7.504 59.17 7.504C58.882 7.504 58.642 7.612 58.45 7.828C58.258 8.044 58.162 8.324 58.162 8.668ZM63.1793 6.268C63.4513 6.052 63.7433 5.904 64.0553 5.824C64.3673 5.736 64.6833 5.692 65.0033 5.692C65.2353 5.692 65.4633 5.712 65.6873 5.752C65.9193 5.792 66.1393 5.844 66.3473 5.908C66.3633 6.396 66.3713 6.796 66.3713 7.108C66.3793 7.412 66.3833 7.648 66.3833 7.816C66.3833 8.056 66.3793 8.228 66.3713 8.332C66.3633 8.428 66.3553 8.52 66.3473 8.608C66.3313 8.608 66.2913 8.6 66.2273 8.584C66.1633 8.568 66.0873 8.552 65.9993 8.536C65.9113 8.52 65.8153 8.508 65.7113 8.5C65.6153 8.484 65.5193 8.476 65.4233 8.476C65.2793 8.476 65.1553 8.496 65.0513 8.536C64.9553 8.568 64.9073 8.636 64.9073 8.74C64.9073 8.828 64.9393 8.912 65.0033 8.992C65.0673 9.064 65.1433 9.14 65.2313 9.22C65.3273 9.292 65.4273 9.364 65.5313 9.436C65.6433 9.5 65.7473 9.56 65.8433 9.616C66.0593 9.76 66.2593 9.956 66.4433 10.204C66.6353 10.444 66.7313 10.764 66.7313 11.164C66.7313 11.516 66.6513 11.816 66.4913 12.064C66.3393 12.312 66.1433 12.516 65.9033 12.676C65.6633 12.836 65.3913 12.952 65.0873 13.024C64.7913 13.096 64.4993 13.132 64.2113 13.132C64.0993 13.132 63.9713 13.128 63.8273 13.12C63.6833 13.112 63.5353 13.096 63.3833 13.072C63.2393 13.048 63.0953 13.02 62.9513 12.988C62.8073 12.948 62.6753 12.9 62.5553 12.844C62.5153 12.708 62.4873 12.564 62.4713 12.412C62.4553 12.252 62.4473 12.096 62.4473 11.944C62.4473 11.872 62.4473 11.784 62.4473 11.68C62.4553 11.576 62.4633 11.472 62.4713 11.368C62.4793 11.256 62.4913 11.148 62.5073 11.044C62.5233 10.94 62.5393 10.852 62.5553 10.78C62.6433 10.82 62.7433 10.864 62.8553 10.912C62.9753 10.952 63.0993 10.992 63.2273 11.032C63.3553 11.072 63.4793 11.108 63.5993 11.14C63.7273 11.164 63.8473 11.176 63.9593 11.176C64.1193 11.176 64.2433 11.144 64.3313 11.08C64.4193 11.016 64.4633 10.928 64.4633 10.816C64.4633 10.72 64.4353 10.636 64.3793 10.564C64.3233 10.484 64.2553 10.412 64.1753 10.348C64.0953 10.276 64.0073 10.216 63.9113 10.168C63.8153 10.112 63.7273 10.064 63.6473 10.024C63.4953 9.944 63.3393 9.856 63.1793 9.76C63.0193 9.664 62.8753 9.548 62.7473 9.412C62.6193 9.268 62.5153 9.096 62.4353 8.896C62.3553 8.696 62.3153 8.452 62.3153 8.164C62.3153 7.828 62.3793 7.492 62.5073 7.156C62.6433 6.82 62.8673 6.524 63.1793 6.268Z" fill="white"/>
<path d="M28.2871 18.1172C28.2871 17.7695 28.3535 17.4434 28.4863 17.1387C28.6191 16.834 28.7988 16.5684 29.0254 16.3418C29.2559 16.1113 29.5234 15.9297 29.8281 15.7969C30.1328 15.6641 30.459 15.5977 30.8066 15.5977H34.6621V17.2793H30.8066C30.6895 17.2793 30.5801 17.3008 30.4785 17.3438C30.377 17.3867 30.2871 17.4473 30.209 17.5254C30.1348 17.5996 30.0762 17.6875 30.0332 17.7891C29.9902 17.8906 29.9688 18 29.9688 18.1172C29.9688 18.2344 29.9902 18.3457 30.0332 18.4512C30.0762 18.5527 30.1348 18.6426 30.209 18.7207C30.2871 18.7949 30.377 18.8535 30.4785 18.8965C30.5801 18.9395 30.6895 18.9609 30.8066 18.9609H32.4883C32.8359 18.9609 33.1621 19.0273 33.4668 19.1602C33.7754 19.2891 34.043 19.4688 34.2695 19.6992C34.5 19.9258 34.6797 20.1934 34.8086 20.502C34.9414 20.8066 35.0078 21.1328 35.0078 21.4805C35.0078 21.8281 34.9414 22.1543 34.8086 22.459C34.6797 22.7637 34.5 23.0312 34.2695 23.2617C34.043 23.4883 33.7754 23.668 33.4668 23.8008C33.1621 23.9336 32.8359 24 32.4883 24H28.7559V22.3184H32.4883C32.6055 22.3184 32.7148 22.2969 32.8164 22.2539C32.918 22.2109 33.0059 22.1523 33.0801 22.0781C33.1582 22 33.2188 21.9102 33.2617 21.8086C33.3047 21.707 33.3262 21.5977 33.3262 21.4805C33.3262 21.3633 33.3047 21.2539 33.2617 21.1523C33.2188 21.0508 33.1582 20.9629 33.0801 20.8887C33.0059 20.8105 32.918 20.75 32.8164 20.707C32.7148 20.6641 32.6055 20.6426 32.4883 20.6426H30.8066C30.459 20.6426 30.1328 20.5762 29.8281 20.4434C29.5234 20.3105 29.2559 20.1309 29.0254 19.9043C28.7988 19.6738 28.6191 19.4062 28.4863 19.1016C28.3535 18.793 28.2871 18.4648 28.2871 18.1172ZM40.498 23.2676C40.3691 23.3848 40.2305 23.4961 40.082 23.6016C39.9375 23.7031 39.7852 23.793 39.625 23.8711C39.4648 23.9453 39.2988 24.0039 39.127 24.0469C38.959 24.0938 38.7871 24.1172 38.6113 24.1172C38.2246 24.1172 37.8613 24.0488 37.5215 23.9121C37.1816 23.7754 36.8828 23.582 36.625 23.332C36.3711 23.0781 36.1699 22.7715 36.0215 22.4121C35.877 22.0488 35.8047 21.6426 35.8047 21.1934V17.7246H37.3984V21.1934C37.3984 21.4043 37.4297 21.5938 37.4922 21.7617C37.5586 21.9258 37.6465 22.0645 37.7559 22.1777C37.8652 22.291 37.9922 22.377 38.1367 22.4355C38.2852 22.4941 38.4434 22.5234 38.6113 22.5234C38.7754 22.5234 38.9297 22.4863 39.0742 22.4121C39.2227 22.334 39.3516 22.2324 39.4609 22.1074C39.5703 21.9824 39.6562 21.8418 39.7188 21.6855C39.7812 21.5254 39.8125 21.3613 39.8125 21.1934V17.7246H41.4121V24H41.0254L40.498 23.2676ZM44.248 26.3906H42.6367V17.7246H43.0234L43.6621 18.4805C43.8066 18.3438 43.9648 18.2148 44.1367 18.0938C44.3086 17.9727 44.4863 17.8691 44.6699 17.7832C44.8574 17.6934 45.0508 17.623 45.25 17.5723C45.4492 17.5215 45.6504 17.4961 45.8535 17.4961C46.2949 17.4961 46.709 17.5762 47.0957 17.7363C47.4863 17.8926 47.8262 18.1152 48.1152 18.4043C48.4082 18.6934 48.6387 19.043 48.8066 19.4531C48.9746 19.8594 49.0586 20.3105 49.0586 20.8066C49.0586 21.3223 48.9746 21.7871 48.8066 22.2012C48.6387 22.6113 48.4082 22.9609 48.1152 23.25C47.8262 23.5352 47.4863 23.7539 47.0957 23.9062C46.709 24.0586 46.2949 24.1348 45.8535 24.1348C45.7129 24.1348 45.5723 24.1191 45.4316 24.0879C45.2949 24.0566 45.1582 24.0156 45.0215 23.9648C44.8887 23.9102 44.7559 23.8496 44.623 23.7832C44.4941 23.7168 44.3691 23.6484 44.248 23.5781V26.3906ZM47.4531 20.8066C47.4531 20.541 47.4102 20.3027 47.3242 20.0918C47.2422 19.8809 47.1289 19.7031 46.9844 19.5586C46.8398 19.4102 46.6699 19.2969 46.4746 19.2188C46.2793 19.1406 46.0723 19.1016 45.8535 19.1016C45.6348 19.1016 45.4277 19.1406 45.2324 19.2188C45.041 19.2969 44.873 19.4102 44.7285 19.5586C44.584 19.7031 44.4688 19.8809 44.3828 20.0918C44.3008 20.3027 44.2598 20.541 44.2598 20.8066C44.2598 21.0605 44.3008 21.293 44.3828 21.5039C44.4688 21.7148 44.584 21.8945 44.7285 22.043C44.873 22.1914 45.041 22.3066 45.2324 22.3887C45.4277 22.4707 45.6348 22.5117 45.8535 22.5117C46.0723 22.5117 46.2793 22.4707 46.4746 22.3887C46.6699 22.3066 46.8398 22.1914 46.9844 22.043C47.1289 21.8945 47.2422 21.7148 47.3242 21.5039C47.4102 21.293 47.4531 21.0605 47.4531 20.8066ZM51.5605 26.3906H49.9492V17.7246H50.3359L50.9746 18.4805C51.1191 18.3438 51.2773 18.2148 51.4492 18.0938C51.6211 17.9727 51.7988 17.8691 51.9824 17.7832C52.1699 17.6934 52.3633 17.623 52.5625 17.5723C52.7617 17.5215 52.9629 17.4961 53.166 17.4961C53.6074 17.4961 54.0215 17.5762 54.4082 17.7363C54.7988 17.8926 55.1387 18.1152 55.4277 18.4043C55.7207 18.6934 55.9512 19.043 56.1191 19.4531C56.2871 19.8594 56.3711 20.3105 56.3711 20.8066C56.3711 21.3223 56.2871 21.7871 56.1191 22.2012C55.9512 22.6113 55.7207 22.9609 55.4277 23.25C55.1387 23.5352 54.7988 23.7539 54.4082 23.9062C54.0215 24.0586 53.6074 24.1348 53.166 24.1348C53.0254 24.1348 52.8848 24.1191 52.7441 24.0879C52.6074 24.0566 52.4707 24.0156 52.334 23.9648C52.2012 23.9102 52.0684 23.8496 51.9355 23.7832C51.8066 23.7168 51.6816 23.6484 51.5605 23.5781V26.3906ZM54.7656 20.8066C54.7656 20.541 54.7227 20.3027 54.6367 20.0918C54.5547 19.8809 54.4414 19.7031 54.2969 19.5586C54.1523 19.4102 53.9824 19.2969 53.7871 19.2188C53.5918 19.1406 53.3848 19.1016 53.166 19.1016C52.9473 19.1016 52.7402 19.1406 52.5449 19.2188C52.3535 19.2969 52.1855 19.4102 52.041 19.5586C51.8965 19.7031 51.7812 19.8809 51.6953 20.0918C51.6133 20.3027 51.5723 20.541 51.5723 20.8066C51.5723 21.0605 51.6133 21.293 51.6953 21.5039C51.7812 21.7148 51.8965 21.8945 52.041 22.043C52.1855 22.1914 52.3535 22.3066 52.5449 22.3887C52.7402 22.4707 52.9473 22.5117 53.166 22.5117C53.3848 22.5117 53.5918 22.4707 53.7871 22.3887C53.9824 22.3066 54.1523 22.1914 54.2969 22.043C54.4414 21.8945 54.5547 21.7148 54.6367 21.5039C54.7227 21.293 54.7656 21.0605 54.7656 20.8066ZM63.3262 20.8066C63.3262 21.2754 63.2422 21.7129 63.0742 22.1191C62.9062 22.5215 62.6777 22.8711 62.3887 23.168C62.0996 23.4609 61.7598 23.6934 61.3691 23.8652C60.9824 24.0332 60.5664 24.1172 60.1211 24.1172C59.6797 24.1172 59.2637 24.0332 58.873 23.8652C58.4863 23.6934 58.1465 23.4609 57.8535 23.168C57.5645 22.8711 57.3359 22.5215 57.168 22.1191C57 21.7129 56.916 21.2754 56.916 20.8066C56.916 20.3301 57 19.8887 57.168 19.4824C57.3359 19.0762 57.5645 18.7266 57.8535 18.4336C58.1465 18.1367 58.4863 17.9043 58.873 17.7363C59.2637 17.5684 59.6797 17.4844 60.1211 17.4844C60.5664 17.4844 60.9824 17.5645 61.3691 17.7246C61.7598 17.8809 62.0996 18.1055 62.3887 18.3984C62.6777 18.6875 62.9062 19.0371 63.0742 19.4473C63.2422 19.8535 63.3262 20.3066 63.3262 20.8066ZM61.7148 20.8066C61.7148 20.5488 61.6719 20.3164 61.5859 20.1094C61.5039 19.8984 61.3906 19.7188 61.2461 19.5703C61.1016 19.418 60.9316 19.3027 60.7363 19.2246C60.5449 19.1426 60.3398 19.1016 60.1211 19.1016C59.9023 19.1016 59.6953 19.1426 59.5 19.2246C59.3086 19.3027 59.1406 19.418 58.9961 19.5703C58.8555 19.7188 58.7441 19.8984 58.6621 20.1094C58.5801 20.3164 58.5391 20.5488 58.5391 20.8066C58.5391 21.0488 58.5801 21.2734 58.6621 21.4805C58.7441 21.6875 58.8555 21.8672 58.9961 22.0195C59.1406 22.1719 59.3086 22.293 59.5 22.3828C59.6953 22.4688 59.9023 22.5117 60.1211 22.5117C60.3398 22.5117 60.5449 22.4707 60.7363 22.3887C60.9316 22.3066 61.1016 22.1914 61.2461 22.043C61.3906 21.8945 61.5039 21.7148 61.5859 21.5039C61.6719 21.293 61.7148 21.0605 61.7148 20.8066ZM65.8105 24H64.2109V17.7246H64.5977L65.125 18.4688C65.3828 18.2344 65.6758 18.0547 66.0039 17.9297C66.332 17.8008 66.6719 17.7363 67.0234 17.7363H68.4355V19.3301H67.0234C66.8555 19.3301 66.6973 19.3613 66.5488 19.4238C66.4004 19.4863 66.2715 19.5723 66.1621 19.6816C66.0527 19.791 65.9668 19.9199 65.9043 20.0684C65.8418 20.2168 65.8105 20.375 65.8105 20.543V24ZM72.3262 24C71.9395 24 71.5762 23.9277 71.2363 23.7832C70.8965 23.6348 70.5977 23.4336 70.3398 23.1797C70.0859 22.9219 69.8848 22.623 69.7363 22.2832C69.5918 21.9434 69.5195 21.5801 69.5195 21.1934V19.3301H68.7402V17.7363H69.5195V15.2285H71.1133V17.7363H73.5391V19.3301H71.1133V21.1934C71.1133 21.3613 71.1445 21.5195 71.207 21.668C71.2695 21.8125 71.3555 21.9395 71.4648 22.0488C71.5742 22.1582 71.7031 22.2461 71.8516 22.3125C72 22.375 72.1582 22.4062 72.3262 22.4062H73.5391V24H72.3262Z" fill="white"/>
</svg>
